#!OML:ASF H:\Pregnant\Project 1\Capture day 1\Session 1\femalepreg.ASF
:FULLY-SPECIFIED
:DEGREES
207
root 5.14085 15.7433 28.011 -181.006 -87.5418 -160.985
lowerback -29.978 0.853934 -2.32662
upperback -4.35794 1.24673 1.13266
thorax 11.5433 0.259079 3.09372
lowerneck -7.09613 2.93457 6.63687
upperneck 24.4215 3.4142 -4.04434
head 8.98478 1.57116 -2.20927
rclavicle -1.69215e-014 -1.72943e-014
rhumerus 6.38137 35.7891 -92.7683
rradius 142.855
rwrist 3.17377
rhand -52.8697 -21.4271
rfingers 7.12502
rthumb -25.3409 -49.7635
lclavicle -1.69215e-014 -1.72943e-014
lhumerus 8.14844 -25.3247 96.7587
lradius 143.276
lwrist 13.7717
lhand -48.5164 -52.2554
lfingers 7.12502
lthumb -21.1645 -23.3907
rfemur -25.0884 18.9695 19.8472
rtibia 27.267
rfoot -15.5621 -16.1687
rtoes -2.70376
lfemur 0 0 0
ltibia 0
lfoot 0 0
ltoes 0
208
root 5.13804 15.7444 28.0121 -181.377 -87.5611 -160.538
lowerback -29.9532 1.06052 -2.31247
upperback -4.43341 1.53186 0.918033
thorax 11.4304 0.397524 2.94593
lowerneck -6.84188 2.66243 7.09296
upperneck 23.8215 3.00794 -4.12992
head 8.7154 1.42142 -2.35048
rclavicle -2.70844e-014 -9.93923e-016
rhumerus 5.80961 31.7562 -93.17
rradius 142.953
rwrist 7.34297
rhand -53.7749 -18.5466
rfingers 7.12502
rthumb -26.2078 -46.7572
lclavicle -2.70844e-014 -9.93923e-016
lhumerus 8.00348 -22.9028 97.056
lradius 143.627
lwrist 11.3254
lhand -48.7166 -55.2866
lfingers 7.12502
lthumb -21.3568 -26.4436
rfemur -25.1469 19.0234 19.8246
rtibia 27.24
rfoot -15.543 -16.2426
rtoes -2.68949
lfemur 0 0 0
ltibia 0
lfoot 0 0
ltoes 0
209
root 5.13466 15.7455 28.0131 -181.67 -87.5755 -160.166
lowerback -29.9276 1.1539 -2.30351
upperback -4.50497 1.65849 0.804052
thorax 11.3301 0.459913 2.85582
lowerneck -6.57175 2.49564 7.38535
upperneck 23.2331 2.78255 -4.23149
head 8.4561 1.33771 -2.44991
rclavicle 3.82039e-015 -9.93923e-017
rhumerus 5.2742 27.7342 -93.6052
rradius 143.147
rwrist 10.896
rhand -54.4997 -14.5258
rfingers 7.12502
rthumb -26.9016 -42.6314
lclavicle 3.82039e-015 -9.93923e-017
lhumerus 7.86721 -20.1601 97.29
lradius 144.083
lwrist 9.39627
lhand -48.8051 -58.2741
lfingers 7.12502
lthumb -21.4418 -29.4407
rfemur -25.212 19.0801 19.7986
rtibia 27.2201
rfoot -15.5282 -16.3176
rtoes -2.68698
lfemur 0 0 0
ltibia 0
lfoot 0 0
ltoes 0
210
root 5.13083 15.7464 28.014 -181.8 -87.5872 -159.955
lowerback -29.8999 1.16678 -2.27918
upperback -4.56995 1.66616 0.76692
thorax 11.2422 0.465976 2.7995
lowerneck -6.29423 2.41479 7.48972
upperneck 22.6729 2.70341 -4.31904
head 8.21228 1.30666 -2.49838
rclavicle -2.95195e-014 -1.86858e-014
rhumerus 4.77395 23.9347 -94.0097
rradius 143.377
rwrist 14.2507
rhand -55.2852 -10.9737
rfingers 7.12502
rthumb -27.6529 -38.9612
lclavicle -2.95195e-014 -1.86858e-014
lhumerus 7.77694 -17.2614 97.4498
lradius 144.632
lwrist 7.94276
lhand -48.8419 -61.0945
lfingers 7.12502
lthumb -21.4772 -32.2651
rfemur -25.2835 19.1435 19.7641
rtibia 27.2102
rfoot -15.5206 -16.3951
rtoes -2.6707
lfemur 0 0 0
ltibia 0
lfoot 0 0
ltoes 0
211
root 5.12674 15.7472 28.0148 -181.73 -87.5945 -159.947
lowerback -29.8656 1.10474 -2.24263
upperback -4.62855 1.56332 0.807081
thorax 11.1631 0.41957 2.78253
lowerneck -6.01803 2.41553 7.37782
upperneck 22.1613 2.75877 -4.36807
head 7.99123 1.32425 -2.48568
rclavicle -2.50344e-015 -3.72721e-015
rhumerus 4.31891 20.4539 -94.3559
rradius 143.654
rwrist 17.1959
rhand -56.1271 -8.16893
rfingers 7.12502
rthumb -28.4577 -36.0247
lclavicle -2.50344e-015 -3.72721e-015
lhumerus 7.75255 -14.2999 97.5743
lradius 145.287
lwrist 6.9565
lhand -48.8148 -63.6573
lfingers 7.12502
lthumb -21.4512 -34.825
rfemur -25.3577 19.2146 19.7221
rtibia 27.2123
rfoot -15.5158 -16.4763
rtoes -2.67136
lfemur 0 0 0
ltibia 0
lfoot 0 0
ltoes 0
212
root 5.12246 15.7479 28.0156 -181.458 -87.6008 -160.146
lowerback -29.8188 1.08717 -2.14718
upperback -4.68502 1.50728 0.788716
thorax 11.0811 0.398429 2.6821
lowerneck -5.77855 2.40897 7.2729
upperneck 21.7174 2.78673 -4.36601
head 7.79908 1.33388 -2.46061
rclavicle 8.18744e-015 -1.39646e-014
rhumerus 3.88497 17.1571 -94.6803
rradius 144.006
rwrist 19.6861
rhand -56.9864 -6.71816
rfingers 7.12502
rthumb -29.2785 -34.4337
lclavicle 8.18744e-015 -1.39646e-014
lhumerus 7.79567 -11.6505 97.6078
lradius 146.009
lwrist 6.43173
lhand -48.7942 -65.7897
lfingers 7.12502
lthumb -21.4314 -36.9551
rfemur -25.4326 19.2898 19.6707
rtibia 27.2259
rfoot -15.5189 -16.5564
rtoes -2.65607
lfemur 0 0 0
ltibia 0
lfoot 0 0
ltoes 0
213
root 5.11805 15.7486 28.0166 -180.971 -87.6077 -160.566
lowerback -29.7665 1.08688 -2.04265
upperback -4.73236 1.47261 0.763393
thorax 11.0059 0.387608 2.57682
lowerneck -5.58128 2.39936 7.11671
upperneck 21.3428 2.80678 -4.33568
head 7.63695 1.33775 -2.41917
rclavicle -1.65612e-014 -2.68359e-015
rhumerus 3.50006 14.1129 -94.9104
rradius 144.442
rwrist 21.4235
rhand -57.7248 -5.74981
rfingers 7.12502
rthumb -29.9834 -33.3401
lclavicle -1.65612e-014 -2.68359e-015
lhumerus 7.8897 -9.35463 97.6176
lradius 146.75
lwrist 6.1249
lhand -48.9188 -67.4267
lfingers 7.12502
lthumb -21.551 -38.6058
rfemur -25.5059 19.3597 19.6116
rtibia 27.2489
rfoot -15.5251 -16.6311
rtoes -2.64404
lfemur 0 0 0
ltibia 0
lfoot 0 0
ltoes 0
214
root 5.11369 15.7494 28.0178 -180.354 -87.6143 -161.123
lowerback -29.7074 1.09226 -1.92372
upperback -4.76989 1.44257 0.732355
thorax 10.939 0.379552 2.45865
lowerneck -5.42074 2.39816 6.93102
upperneck 21.0343 2.83363 -4.28367
head 7.50372 1.34402 -2.36593
rclavicle 1.44864e-014 9.83984e-015
rhumerus 3.15408 11.4543 -95.0566
rradius 144.936
rwrist 22.4971
rhand -58.2345 -5.01
rfingers 7.12502
rthumb -30.4696 -32.5112
lclavicle 1.44864e-014 9.83984e-015
lhumerus 8.00718 -7.38419 97.5664
lradius 147.461
lwrist 5.91898
lhand -49.1789 -68.5545
lfingers 7.12502
lthumb -21.8008 -39.7624
rfemur -25.5735 19.4156 19.5512
rtibia 27.2772
rfoot -15.5335 -16.6931
rtoes -2.64352
lfemur 0 0 0
ltibia 0
lfoot 0 0
ltoes 0
215
root 5.10941 15.7501 28.0192 -179.691 -87.621 -161.734
lowerback -29.648 1.09252 -1.78509
upperback -4.79113 1.40191 0.697435
thorax 10.892 0.367274 2.32116
lowerneck -5.29862 2.4162 6.72634
upperneck 20.7805 2.88198 -4.21297
head 7.39665 1.36032 -2.30225
rclavicle -1.5704e-014 -1.08338e-014
rhumerus 2.85687 9.23285 -95.1523
rradius 145.468
rwrist 23.0256
rhand -58.549 -4.48546
rfingers 7.12502
rthumb -30.7694 -31.9306
lclavicle -1.5704e-014 -1.08338e-014
lhumerus 8.12766 -5.7125 97.417
lradius 148.085
lwrist 5.69379
lhand -49.5275 -69.374
lfingers 7.12502
lthumb -22.1355 -40.6212
rfemur -25.6328 19.4485 19.4954
rtibia 27.3066
rfoot -15.5421 -16.7355
rtoes -2.66216
lfemur 0 0 0
ltibia 0
lfoot 0 0
ltoes 0
